HIERARCHY
ROOT Hips
{
	OFFSET 7.7125 38.4228 -161.4020
	CHANNELS 6 Xposition Yposition Zposition Xrotation Yrotation Zrotation
	JOINT Spine
	{
		OFFSET 0.0000 7.4000 0.0000
		CHANNELS 3 Xrotation Yrotation Zrotation
		JOINT Head
		{
			OFFSET 0.0000 16.5127 0.0000
			CHANNELS 3 Xrotation Yrotation Zrotation
			End Site
			{
				OFFSET 0.0000 4.5275 0.0000
			}
		}
		JOINT LeftShoulder
		{
			OFFSET 0.0000 11.0747 0.0000
			CHANNELS 3 Xrotation Yrotation Zrotation
			JOINT LeftArm
			{
				OFFSET 8.2554 0.0000 0.0000
				CHANNELS 3 Xrotation Yrotation Zrotation
				JOINT LeftForeArm
				{
					OFFSET 11.1751 0.0000 0.0000
					CHANNELS 3 Xrotation Yrotation Zrotation
					JOINT LeftHand
					{
						OFFSET 9.4775 0.0000 0.0000
						CHANNELS 3 Xrotation Yrotation Zrotation
						JOINT LeftHandThumb1
						{
							OFFSET 0.0000 0.0000 0.0000
							CHANNELS 3 Xrotation Yrotation Zrotation
							End Site
							{
								OFFSET 0.0000 0.0000 3.9370
							}
						}
						JOINT LeftHand_End
						{
							OFFSET 3.9370 0.0000 0.0000
							CHANNELS 3 Xrotation Yrotation Zrotation
							End Site
							{
								OFFSET 0.0000 0.0000 0.0000
							}
						}
					}
				}
			}
		}
		JOINT RightShoulder
		{
			OFFSET 0.0000 11.0747 0.0000
			CHANNELS 3 Xrotation Yrotation Zrotation
			JOINT RightArm
			{
				OFFSET -8.2554 0.0000 0.0000
				CHANNELS 3 Xrotation Yrotation Zrotation
				JOINT RightForeArm
				{
					OFFSET -11.1751 0.0000 0.0000
					CHANNELS 3 Xrotation Yrotation Zrotation
					JOINT RightHand
					{
						OFFSET -9.4775 0.0000 0.0000
						CHANNELS 3 Xrotation Yrotation Zrotation
						JOINT RightHandThumb1
						{
							OFFSET 0.0000 0.0000 0.0000
							CHANNELS 3 Xrotation Yrotation Zrotation
							End Site
							{
								OFFSET 0.0000 0.0000 3.9370
							}
						}
						JOINT RightHand_End
						{
							OFFSET -3.9370 0.0000 0.0000
							CHANNELS 3 Xrotation Yrotation Zrotation
							End Site
							{
								OFFSET 0.0000 0.0000 0.0000
							}
						}
					}
				}
			}
		}
	}
	JOINT LeftUpLeg
	{
		OFFSET 3.6339 0.0000 0.0000
		CHANNELS 3 Xrotation Yrotation Zrotation
		JOINT LeftLeg
		{
			OFFSET 0.0000 -18.3740 0.0000
			CHANNELS 3 Xrotation Yrotation Zrotation
			JOINT LeftFoot
			{
				OFFSET 0.0000 -17.5024 0.0000
				CHANNELS 3 Xrotation Yrotation Zrotation
				JOINT LeftToeBase
				{
					OFFSET 0.0000 -1.4944 5.5772
					CHANNELS 3 Xrotation Yrotation Zrotation
					End Site
					{
						OFFSET 0.0000 0.0000 2.9527
					}
				}
			}
		}
	}
	JOINT RightUpLeg
	{
		OFFSET -3.6339 0.0000 0.0000
		CHANNELS 3 Xrotation Yrotation Zrotation
		JOINT RightLeg
		{
			OFFSET 0.0000 -18.3740 0.0000
			CHANNELS 3 Xrotation Yrotation Zrotation
			JOINT RightFoot
			{
				OFFSET 0.0000 -17.5024 0.0000
				CHANNELS 3 Xrotation Yrotation Zrotation
				JOINT RightToeBase
				{
					OFFSET 0.0000 -1.4944 5.5772
					CHANNELS 3 Xrotation Yrotation Zrotation
					End Site
					{
						OFFSET 0.0000 0.0000 2.9527
					}
				}
			}
		}
	}
}
MOTION
Frames: 19
Frame Time: 0.008333
9.1927 36.1083 -155.9140 -8.0830 -80.0162 -26.2666 21.0269 -6.7875 16.6625 -56.4200 67.6330 39.2879 1.9485 23.7764 5.8964 1.4695 -23.6915 -90.7831 38.9035 -57.0202 34.0964 0.0873 8.4149 -0.5962 -0.0000 0.0000 -0.0000 -0.0000 0.0000 -0.0000 5.5328 -5.1299 -5.3478 -6.9605 23.2551 75.4718 -3.9620 10.1626 0.7001 0.6436 -7.8650 4.6928 -0.0000 0.0000 -0.0000 -0.0000 0.0000 -0.0000 -13.7121 -5.5480 7.1317 85.2345 0.0000 -0.0000 -9.4384 7.1246 -15.1325 4.2675 -0.0000 -0.0000 -8.8349 0.2935 3.4632 24.5579 0.0000 0.0000 -15.7694 -0.2289 40.2466 -6.7351 0.0000 0.0000 
8.5906 36.2478 -155.8750 -8.2437 -79.4085 -25.9627 20.9631 -6.2718 15.8932 -55.4470 67.2092 38.0371 1.8942 23.6409 5.8362 1.5725 -23.1841 -90.7135 35.7181 -54.7690 30.4277 -0.0380 8.9180 0.2454 -0.0000 0.0000 -0.0000 -0.0000 0.0000 -0.0000 5.0781 -4.9165 -5.5314 -7.6352 21.4358 75.5787 -4.0330 11.6677 0.8169 0.5525 -7.4868 4.2328 -0.0000 0.0000 -0.0000 -0.0000 0.0000 -0.0000 -15.7152 -5.0136 6.6085 84.9681 -0.0000 0.0000 -11.4014 6.7254 -14.7476 4.0273 0.0000 -0.0000 -6.8545 0.1614 3.1889 23.1258 0.0000 -0.0000 -15.7941 -0.6455 39.8439 -6.5215 0.0000 -0.0000 
8.0029 36.3800 -155.8270 -7.6378 -78.8982 -24.8018 20.7239 -5.7642 14.9886 -54.4742 66.5978 36.7366 1.7160 23.5291 5.7547 1.9105 -22.5467 -90.4682 33.8247 -52.3735 27.9548 -0.0319 9.0530 0.2025 -0.0000 0.0000 -0.0000 -0.0000 0.0000 -0.0000 4.6746 -4.7385 -5.7057 -8.4038 19.2784 75.6845 -3.8347 13.3243 0.8850 0.5491 -7.1311 4.4147 -0.0000 0.0000 -0.0000 -0.0000 0.0000 -0.0000 -17.9279 -4.2585 6.0395 84.3813 0.0000 0.0000 -12.9981 6.0553 -13.7846 3.2778 0.0000 -0.0000 -5.1432 0.1630 2.8426 21.8060 -0.0000 0.0000 -15.7352 -1.0977 39.1623 -6.4558 -0.0000 -0.0000 
7.4034 36.4940 -155.7860 -7.5969 -78.3833 -24.2176 20.6153 -5.2518 14.0759 -53.5387 66.1098 35.4370 1.6099 23.4816 5.7737 2.1821 -22.0495 -90.1161 30.7803 -50.5172 24.6900 -0.1031 9.1261 0.6498 -0.0000 0.0000 -0.0000 -0.0000 0.0000 -0.0000 4.2070 -4.5493 -5.9634 -8.9709 17.4832 75.7778 -4.0116 15.1938 1.0530 0.5535 -6.7934 4.6688 -0.0000 0.0000 -0.0000 -0.0000 0.0000 -0.0000 -19.8245 -3.5470 5.4415 83.3826 0.0000 -0.0000 -14.6144 5.4561 -13.5915 3.0022 -0.0000 0.0000 -3.3463 0.3240 2.5597 20.4954 0.0000 0.0000 -15.7102 -1.7199 38.6219 -6.1980 0.0000 0.0000 
6.8017 36.5953 -155.7420 -7.5670 -77.9635 -23.6102 20.4861 -4.7354 13.0918 -52.8174 65.6059 34.3276 1.4984 23.3761 5.7742 2.5489 -21.4743 -89.5875 28.0287 -48.9453 21.8724 -0.0850 9.6144 0.5089 -0.0000 0.0000 -0.0000 -0.0000 0.0000 -0.0000 3.7576 -4.3503 -6.2130 -9.3668 16.1748 75.7631 -4.3295 17.2570 1.2866 0.5441 -6.4508 4.8312 -0.0000 0.0000 -0.0000 -0.0000 0.0000 -0.0000 -21.6583 -2.6929 4.8584 82.1283 0.0000 -0.0000 -15.9098 4.8685 -13.5871 2.8901 0.0000 -0.0000 -1.6310 0.5389 2.2295 19.2685 0.0000 0.0000 -15.7164 -2.3839 38.3222 -5.8295 0.0000 0.0000 
6.2009 36.6778 -155.7080 -7.4307 -77.6039 -23.0391 20.3673 -4.1873 12.2610 -51.9839 65.1825 33.1005 1.2737 23.3616 5.9072 3.0390 -20.9667 -89.0401 26.3691 -47.1450 19.9716 0.0374 9.5309 -0.2257 -0.0000 0.0000 -0.0000 -0.0000 0.0000 -0.0000 3.2599 -4.1618 -6.5996 -9.7792 14.9774 75.8118 -4.4953 19.3341 1.4910 0.5440 -6.0709 5.1301 -0.0000 0.0000 -0.0000 -0.0000 0.0000 -0.0000 -23.4565 -1.7971 4.4086 80.5982 0.0000 0.0000 -16.8955 4.3201 -12.9931 2.6851 0.0000 -0.0000 0.0026 1.1219 2.1027 18.0715 -0.0000 -0.0000 -15.6942 -3.3279 38.0192 -5.4786 -0.0000 0.0000 
5.6114 36.7469 -155.6760 -6.9421 -77.2034 -22.1501 20.2571 -3.7666 11.4916 -51.3121 64.8490 31.9851 1.3379 23.3646 5.8360 3.4573 -20.4302 -88.2970 24.9516 -45.8091 18.4495 0.1369 9.6747 -0.8148 -0.0000 0.0000 -0.0000 -0.0000 0.0000 -0.0000 2.8501 -3.9039 -7.0172 -10.2448 13.9366 75.8237 -4.4830 21.5256 1.6478 0.5356 -5.7334 5.3459 -0.0000 0.0000 -0.0000 -0.0000 0.0000 -0.0000 -25.2212 -1.0119 3.9725 78.7705 0.0000 -0.0000 -17.4685 3.7209 -13.9886 2.3110 -0.0000 0.0000 1.5446 1.2514 1.9532 16.9398 -0.0000 -0.0000 -15.6006 -3.8702 37.4921 -5.7342 0.0000 0.0000 
5.0033 36.7963 -155.6300 -7.0608 -76.7954 -21.8191 20.3002 -3.3727 10.7036 -50.6412 64.6289 30.8411 1.4941 23.5239 5.7533 3.7918 -20.1735 -87.4490 23.2966 -44.7926 16.8765 0.2854 10.0106 -1.6414 -0.0000 0.0000 -0.0000 -0.0000 0.0000 -0.0000 2.3831 -3.6616 -7.4766 -10.6251 13.2460 75.7616 -4.7794 23.7467 1.9284 0.5248 -5.5260 5.4341 -0.0000 0.0000 -0.0000 -0.0000 0.0000 -0.0000 -26.7193 -0.1484 3.5527 76.8286 0.0000 -0.0000 -18.0769 3.4336 -14.0446 1.5721 -0.0000 0.0000 3.2854 1.3787 1.7456 15.7413 0.0000 0.0000 -15.6516 -4.4879 37.3661 -5.2817 -0.0000 -0.0000 
4.4055 36.8310 -155.5990 -6.6666 -76.3666 -21.0947 20.2884 -3.0754 10.0530 -50.1069 64.5421 29.7882 1.6805 23.6130 5.6300 4.3270 -19.9358 -86.4634 22.2913 -44.1770 15.9439 0.4430 10.5481 -2.4183 -0.0000 0.0000 -0.0000 -0.0000 0.0000 -0.0000 1.9400 -3.3964 -7.9520 -11.0097 12.7807 75.6513 -4.5932 26.0652 2.0217 0.5283 -5.4569 5.5381 -0.0000 0.0000 -0.0000 -0.0000 0.0000 -0.0000 -28.2688 0.6721 3.1952 74.6879 0.0000 0.0000 -18.5742 3.3511 -13.5326 1.2763 -0.0000 0.0000 4.8879 1.2919 1.6573 14.5505 0.0000 0.0000 -15.5098 -4.8127 36.9759 -5.5702 -0.0000 -0.0000 
3.7976 36.8461 -155.5590 -6.7207 -75.9632 -20.8312 20.3958 -2.7844 9.4421 -49.5708 64.5315 28.7372 1.9980 23.7206 5.4263 4.9229 -19.6509 -85.3622 21.5633 -43.8501 15.3110 0.6083 10.7723 -3.2512 -0.0000 0.0000 -0.0000 -0.0000 0.0000 -0.0000 1.6062 -3.1244 -8.5044 -11.4541 12.5416 75.5620 -3.9869 28.5203 1.9060 0.4567 -5.2934 4.9385 -0.0000 0.0000 -0.0000 -0.0000 0.0000 -0.0000 -29.5252 1.4831 2.8359 72.2585 0.0000 -0.0000 -19.0630 3.5917 -13.0741 1.3958 0.0000 0.0000 6.5975 1.2126 1.5700 13.3550 -0.0000 -0.0000 -15.4485 -5.1922 36.9566 -5.5350 0.0000 -0.0000 
3.1919 36.8469 -155.5180 -6.4449 -75.5536 -20.2982 20.4568 -2.6025 8.9145 -49.1291 64.5220 27.7657 2.1542 23.9456 5.2711 5.7847 -19.5667 -84.1508 21.0996 -43.8020 14.9535 0.7887 10.8242 -4.1927 -0.0000 0.0000 -0.0000 -0.0000 0.0000 -0.0000 1.2839 -2.8293 -9.0301 -11.8978 12.4688 75.3237 -3.4344 30.9990 1.7703 0.3914 -5.0735 4.4171 -0.0000 0.0000 -0.0000 -0.0000 0.0000 -0.0000 -30.7150 2.2596 2.4774 69.6059 0.0000 -0.0000 -19.5254 4.0755 -12.4716 2.0342 -0.0000 0.0000 8.1692 0.8740 1.5340 12.2831 -0.0000 0.0000 -15.2883 -5.1942 36.6436 -5.9976 -0.0000 0.0000 
2.5887 36.8297 -155.4750 -6.0910 -75.1544 -19.7762 20.4955 -2.4356 8.5376 -48.6408 64.7038 26.7674 3.0039 24.2467 4.7465 6.1698 -19.5213 -82.8017 21.1276 -44.1422 15.0625 1.0242 11.0627 -5.3228 -0.0000 0.0000 -0.0000 -0.0000 0.0000 -0.0000 0.8918 -2.5276 -9.6175 -12.2601 12.5192 75.0348 -1.8379 33.5111 1.0149 0.3602 -4.7349 4.3550 -0.0000 0.0000 -0.0000 -0.0000 0.0000 -0.0000 -31.8201 2.9941 2.1636 66.6833 0.0000 0.0000 -19.7599 4.6739 -12.3572 1.7093 -0.0000 0.0000 9.6712 0.4510 1.5505 11.3058 0.0000 0.0000 -15.1821 -5.1460 36.7784 -6.7165 -0.0000 -0.0000 
1.9804 36.8006 -155.4330 -5.9969 -74.6822 -19.5336 20.6851 -2.4230 8.1976 -48.3565 64.9102 25.9353 3.4579 24.6021 4.4040 6.9585 -19.4772 -81.4739 21.2474 -44.6397 15.2807 1.1853 10.8977 -6.2458 -0.0000 0.0000 -0.0000 -0.0000 0.0000 -0.0000 0.5468 -2.1506 -10.1441 -12.7510 12.4259 74.6713 -0.8495 36.0763 0.5003 0.3290 -4.6661 4.0381 -0.0000 0.0000 -0.0000 -0.0000 0.0000 -0.0000 -32.6736 3.6957 1.9192 63.5407 0.0000 -0.0000 -20.1529 5.3095 -11.6919 2.4875 0.0000 0.0000 11.2918 -0.0487 1.6137 10.2804 0.0000 -0.0000 -15.0547 -4.9794 36.9630 -6.5092 0.0000 -0.0000 
1.3647 36.7546 -155.3830 -5.8763 -74.2796 -19.3514 20.7931 -2.2759 7.9381 -48.0701 65.1102 25.1908 3.9959 24.9156 4.0045 7.8485 -19.6683 -79.9570 21.1552 -45.3922 15.4029 1.3225 10.4878 -7.2279 -0.0000 0.0000 -0.0000 -0.0000 0.0000 -0.0000 0.0980 -1.8596 -10.6330 -13.0927 12.3228 74.1843 0.0639 38.7104 -0.0400 0.3212 -4.7510 3.8724 -0.0000 0.0000 -0.0000 -0.0000 0.0000 -0.0000 -33.3435 4.3130 1.7512 60.0260 0.0000 -0.0000 -20.1694 5.8296 -12.1358 1.9559 0.0000 -0.0000 12.8834 -0.5982 1.7266 9.2734 0.0000 0.0000 -14.8780 -4.6619 37.3093 -6.8467 0.0000 -0.0000 
0.7410 36.6977 -155.3200 -6.1751 -73.9231 -19.5418 21.0160 -2.1332 7.6353 -47.9308 65.3681 24.6025 4.5418 25.3188 3.6038 8.7233 -19.8089 -78.4961 21.6951 -46.2020 16.0220 1.4671 10.1755 -8.2486 -0.0000 0.0000 -0.0000 -0.0000 0.0000 -0.0000 -0.4039 -1.5737 -11.0814 -13.4825 12.1575 73.6488 0.7885 41.3509 -0.5210 0.3409 -5.0147 3.8945 -0.0000 0.0000 -0.0000 -0.0000 0.0000 -0.0000 -33.7662 5.1335 1.6092 56.3317 0.0000 -0.0000 -20.1139 6.3896 -12.2390 1.8454 0.0000 0.0000 14.5445 -1.0959 1.7867 8.3416 -0.0000 0.0000 -14.7008 -4.1987 37.5887 -7.1254 0.0000 -0.0000 
0.1182 36.6278 -155.2490 -6.3060 -73.7211 -19.6106 21.1120 -1.9471 7.3592 -47.8063 65.6649 24.1464 4.9836 25.7833 3.2590 9.7757 -19.9147 -77.0866 22.0908 -47.1827 16.5792 1.6048 9.8853 -9.2685 -0.0000 0.0000 -0.0000 -0.0000 0.0000 -0.0000 -0.9058 -1.2610 -11.5086 -13.8064 12.1244 73.0968 1.9377 44.0321 -1.3471 0.3450 -5.4392 3.6343 -0.0000 0.0000 -0.0000 -0.0000 0.0000 -0.0000 -34.0481 5.9692 1.5255 52.2805 0.0000 -0.0000 -20.1510 7.0629 -12.4113 2.1695 -0.0000 -0.0000 16.0211 -1.5015 1.8213 7.5661 -0.0000 0.0000 -14.4921 -3.6286 37.9209 -7.7808 0.0000 -0.0000 
-0.5109 36.5449 -155.1660 -6.5162 -73.4571 -19.7546 21.2150 -1.7638 7.1156 -47.5755 66.0152 23.6956 5.4990 26.2179 2.9675 10.7456 -20.2159 -75.6887 22.0773 -48.2106 16.8260 1.6266 9.3713 -9.8926 -0.0000 0.0000 -0.0000 -0.0000 0.0000 -0.0000 -1.2848 -1.0535 -11.9458 -14.2835 11.9637 72.5383 2.8909 46.6996 -2.1047 0.3923 -5.9173 3.8000 -0.0000 0.0000 -0.0000 -0.0000 0.0000 -0.0000 -34.1022 6.6725 1.3283 47.9808 0.0000 -0.0000 -19.9907 7.7454 -12.4366 2.1744 0.0000 -0.0000 17.4724 -1.9890 1.8565 6.9746 0.0000 0.0000 -14.3524 -2.9858 38.2123 -8.3326 -0.0000 -0.0000 
-1.1401 36.4515 -155.0760 -6.5204 -73.3548 -19.7313 21.1461 -1.4965 6.8721 -47.3962 66.3917 23.4381 5.9610 26.6768 2.7895 11.7478 -20.4707 -74.4685 21.9962 -49.2279 17.0097 1.6972 9.0658 -10.6499 -0.0000 0.0000 -0.0000 -0.0000 0.0000 -0.0000 -1.4819 -0.8764 -12.3816 -14.8931 11.8298 71.9906 3.6763 49.3151 -2.7894 0.4429 -6.4542 3.9344 -0.0000 0.0000 -0.0000 -0.0000 0.0000 -0.0000 -34.0486 7.4057 1.1867 43.3913 0.0000 -0.0000 -19.6743 8.3951 -12.7169 2.0136 0.0000 -0.0000 18.6877 -2.1546 1.8632 6.6047 0.0000 0.0000 -14.2351 -2.4247 38.4418 -9.0509 -0.0000 -0.0000 
-1.7711 36.3510 -154.9770 -6.6772 -73.3623 -19.8832 21.0671 -1.1042 6.6312 -47.1534 66.8331 23.1722 6.4045 27.1079 2.6595 12.7918 -20.7063 -73.3574 22.0666 -50.2617 17.3136 1.7517 8.9092 -11.1707 -0.0000 0.0000 -0.0000 -0.0000 0.0000 -0.0000 -1.8492 -0.7335 -12.8606 -15.4206 11.6137 71.5432 4.4554 51.7201 -3.5001 0.5109 -6.7875 4.3146 -0.0000 0.0000 -0.0000 -0.0000 0.0000 -0.0000 -33.7641 8.1407 1.0770 38.5512 0.0000 -0.0000 -19.4715 8.9745 -12.8996 1.8130 0.0000 0.0000 19.7707 -1.8887 1.8359 6.4929 -0.0000 -0.0000 -14.1790 -2.0544 38.7581 -9.7367 -0.0000 -0.0000 
